<?xml version="1.0" encoding="UTF-8"?>
<svg width="40px" height="40px" viewBox="0 0 40 40" version="1.1" xmlns="http://www.w3.org/2000/svg" xmlns:xlink="http://www.w3.org/1999/xlink">
    <!-- Generator: Sketch 61.2 (89653) - https://sketch.com -->
    <title>holistic_btc_set</title>
    <desc>Created with Sketch.</desc>
    <defs>
        <linearGradient x1="50%" y1="0%" x2="50%" y2="100%" id="linearGradient-1">
            <stop stop-color="#302201" offset="0%"></stop>
            <stop stop-color="#181100" offset="100%"></stop>
        </linearGradient>
        <circle id="path-2" cx="20" cy="20" r="20"></circle>
        <linearGradient x1="50%" y1="0%" x2="50%" y2="100%" id="linearGradient-4">
            <stop stop-color="#DFC582" offset="0%"></stop>
            <stop stop-color="#6E592A" offset="100%"></stop>
        </linearGradient>
    </defs>
    <g id="holistic_btc_set" stroke="none" stroke-width="1" fill="none" fill-rule="evenodd">
        <g id="Oval-Copy-3-+-Oval-Copy-2-Mask">
            <mask id="mask-3" fill="white">
                <use xlink:href="#path-2"></use>
            </mask>
            <use id="Mask" fill="url(#linearGradient-1)" xlink:href="#path-2"></use>
            <path d="M20,40 C31.045695,40 40,31.045695 40,20 C40,8.954305 31.045695,0 20,0 C19.960858,0 20.0256298,40 20,40 Z" id="Oval-Copy-2" fill="url(#linearGradient-4)" mask="url(#mask-3)"></path>
        </g>
        <g id="Group-2" transform="translate(7.280591, 6.912005)" fill="#FFFFFF">
            <circle id="Oval" cx="12.5285709" cy="12.6259879" r="2.02401407"></circle>
            <path d="M12.5285709,0.0974169509 C16.0058711,0.0974169509 19.1522979,1.51405404 21.422203,3.80167975 L18.2123304,6.98623784 C16.7616488,5.5243068 14.750833,4.61899741 12.5285709,4.61899741 C8.10643221,4.61899741 4.52158046,8.20384916 4.52158046,12.6259879 C4.52158046,17.0481266 8.10643221,20.6329784 12.5285709,20.6329784 C14.7396403,20.6329784 16.7413879,19.7367654 18.1903682,18.2877852 L21.3876084,21.4850254 C19.120383,23.7522508 15.9882403,25.1545588 12.5285709,25.1545588 C5.60923228,25.1545588 0,19.5453266 0,12.6259879 C0,5.70664923 5.60923228,0.0974169509 12.5285709,0.0974169509 Z" id="Combined-Shape"></path>
            <path d="M12.5285709,0.0974169509 C19.4479096,0.0974169509 25.0571419,5.70664923 25.0571419,12.6259879 C25.0571419,19.5453266 19.4479096,25.1545588 12.5285709,25.1545588 C5.60923228,25.1545588 0,19.5453266 0,12.6259879 C0,5.70664923 5.60923228,0.0974169509 12.5285709,0.0974169509 Z M12.5285709,0.372953697 C5.76140702,0.372953697 0.275536746,5.85882397 0.275536746,12.6259879 C0.275536746,19.3931518 5.76140702,24.8790221 12.5285709,24.8790221 C19.2957349,24.8790221 24.7816051,19.3931518 24.7816051,12.6259879 C24.7816051,5.85882397 19.2957349,0.372953697 12.5285709,0.372953697 Z" id="Oval-Copy-7" fill-rule="nonzero"></path>
            <path d="M12.5285709,4.34346067 C7.95425747,4.34346067 4.24604371,8.05167442 4.24604371,12.6259879 C4.24604371,17.2003014 7.95425747,20.9085151 12.5285709,20.9085151 C17.1028844,20.9085151 20.8110982,17.2003014 20.8110982,12.6259879 C20.8110982,8.05167442 17.1028844,4.34346067 12.5285709,4.34346067 Z M12.5285709,4.61899741 C16.9507097,4.61899741 20.5355614,8.20384916 20.5355614,12.6259879 C20.5355614,17.0481266 16.9507097,20.6329784 12.5285709,20.6329784 C8.10643221,20.6329784 4.52158046,17.0481266 4.52158046,12.6259879 C4.52158046,8.20384916 8.10643221,4.61899741 12.5285709,4.61899741 Z" id="Oval-Copy-6" fill-rule="nonzero"></path>
            <polygon id="Path-92-Copy" fill-rule="nonzero" points="24.9597249 0 25.1545588 0.194833902 12.6259879 12.7234048 12.431154 12.5285709"></polygon>
            <polygon id="Path-93-Copy" fill-rule="nonzero" points="12.6259879 12.5285709 25.1545588 25.0571419 24.9597249 25.2519758 12.431154 12.7234048"></polygon>
        </g>
    </g>
</svg>