<svg id="图层_1" data-name="图层 1" xmlns="http://www.w3.org/2000/svg" viewBox="0 0 67.18 55.69"><defs><style>.cls-1,.cls-4{fill:none;}.cls-1,.cls-2,.cls-4{stroke:#8f8da4;stroke-miterlimit:10;stroke-width:2px;}.cls-2{fill:#fff;}.cls-3{fill:#8f8da4;}.cls-4{stroke-linecap:round;}</style></defs><title>投票icon</title><path class="cls-1" d="M212.28,302.53h-61a2.07,2.07,0,0,1-2-2.68l4.28-13.91a2.07,2.07,0,0,1,2-1.46H208a2.07,2.07,0,0,1,2,1.46l4.28,13.91A2.07,2.07,0,0,1,212.28,302.53Z" transform="translate(-148.17 -247.83)"/><path class="cls-2" d="M175.37,294.21l-.8-.8L161.5,280.34a2.78,2.78,0,0,1-.11-3.93l26.82-26.82a2.78,2.78,0,0,1,3.93.11l18.48,18.48a2.78,2.78,0,0,1,.11,3.93l-22,22-.5.5" transform="translate(-148.17 -247.83)"/><polygon class="cls-3" points="51.91 47.74 15.27 47.74 15.93 45.67 51.04 45.67 51.91 47.74"/><path class="cls-4" d="M175.48,274.28l7,7a1.09,1.09,0,0,0,1.54,0l11.73-11.73" transform="translate(-148.17 -247.83)"/></svg>