<svg id="图层_1" data-name="图层 1" xmlns="http://www.w3.org/2000/svg" viewBox="0 0 89.84 56.32"><defs><style>.cls-1{fill:#4196fc;}</style></defs><title>wallet-3</title><path class="cls-1" d="M504.52,405.89a74.59,74.59,0,0,1,11.56,0,39.82,39.82,0,0,1,22,11.52c1.6,1.62,1.73,2.83,0,4.35a48.63,48.63,0,0,0-4.07,4c-1.37,1.57-2.42,1.5-3.85,0a27.29,27.29,0,0,0-39.3-.94c-3.08,3-3.07,3-6.17-.1-1-1-2-2-3-3-1.43-1.37-1.41-2.67,0-4.07A39.93,39.93,0,0,1,504.52,405.89Z" transform="translate(-465.04 -405.67)"/><rect class="cls-1" x="475.86" y="426.35" width="11.4" height="38.19" rx="2.44" ry="2.44" transform="translate(-638.97 65.31) rotate(-45)"/><rect class="cls-1" x="494.81" y="426.36" width="11.4" height="38.19" rx="2.44" ry="2.44" transform="translate(74.4 708.67) rotate(-135)"/><rect class="cls-1" x="513.72" y="426.38" width="11.4" height="38.19" rx="2.44" ry="2.44" transform="translate(-627.9 92.09) rotate(-45)"/><rect class="cls-1" x="532.66" y="426.38" width="11.4" height="38.19" rx="2.44" ry="2.44" transform="translate(7.63 -655.88) rotate(45)"/></svg>